<?xml version="1.0" encoding="UTF-8"?>
<svg id="uuid-af6486f1-c563-41b5-a90e-16ead28312c5" data-name="Ebene 1" xmlns="http://www.w3.org/2000/svg" viewBox="0 0 814.55 463.02">
  <defs>
    <style>
      .uuid-9c6edbc4-d4ba-4e5d-b6e2-740b690929c4 {
        fill: none;
      }

      .uuid-9c6edbc4-d4ba-4e5d-b6e2-740b690929c4, .uuid-d47b4cdf-9a17-464b-9f01-5c2cc1436693 {
        stroke: #58bdeb;
        stroke-miterlimit: 10;
        stroke-width: 10px;
      }

      .uuid-d47b4cdf-9a17-464b-9f01-5c2cc1436693 {
        fill: #58bdeb;
      }
    </style>
  </defs>
  <path class="uuid-9c6edbc4-d4ba-4e5d-b6e2-740b690929c4" d="m.58,236.71c40.39,4.71,99.04,4.72,142-31,49.2-40.91,30.4-89.25,78-137C292.12-3.05,419.42,21.04,441.58,25.71c36.79,7.75,110.36,23.24,152,88,50.91,79.18,39.77,209.75-43,264-57.08,37.41-156.98,44.26-199-15-38.66-54.53-12.45-142.68,34-178,26.62-20.24,40.59-8.46,135-41,56.94-19.63,75.47-32.05,86-52,10.62-20.13,15.33-52.17,0-71-21.43-26.32-72.43-15.03-141,1-83.77,19.59-125.66,29.38-155,61-38.65,41.64-71.55,123.36-31,196,33.92,60.76,106.29,92,174,78,49.69-10.27,99.39-41.75,117.26-83.68,5.47-12.84,6.63-23.27,6.74-30.32.47-30.66-17.64-65.91-43-74-41.1-13.11-88.58,41.79-100,55-67.9,78.51-38.84,150.81-85,176-46.12,25.17-144.83-8.98-165-82-20.55-74.38,51.72-148.07,114-159,84.6-14.85,166.64,83.3,177,96,35.06,42.99,39.78,75.91,76,87,33.28,10.19,76-3.29,95-32,35.78-54.07-22.93-146.6-66-148-19.53-.64-40.62,25.9-82,79-4.17,5.35-4.73,6.83-28.96,41.27-20.98,29.82-31.47,44.72-33.04,46.73-4.73,6.06-52.68,67.54-111,60-55.28-7.15-101.75-73.95-89-114,11.49-36.11,64.41-29.39,165-76,43.74-20.27,158.96-73.65,153-117-5.86-42.6-128.66-74.83-225.2-44.18-32.37,10.28-53.84,17.09-63.8,37.18-24.62,49.65,58.65,104.32,142,266,40.96,79.45,45.12,113.33,72,117,47.15,6.44,120.73-86.02,112-174-9.4-94.72-114.24-184.71-212-160-102.92,26.02-122.82,160.17-124.1,169.85-2.68,20.15-8.62,64.77,12.1,77.15,26.09,15.59,72.46-32.99,154-92,153.25-110.91,237.71-118.97,234-157-4.44-45.56-130.68-85.52-158-53-34.45,41,117.18,162.96,77,254-29.96,67.88-159.45,102.5-255,57-81.03-38.59-138.82-135.35-117-199,19-55.41,89.92-61.21,89-102-.87-38.61-65.5-81.58-99-66-39.06,18.16-40,117.88-5,139,31.1,18.77,71.64-35.95,187-57,45.34-8.27,72.15-12.78,99,1,55.83,28.66,72.31,116.08,61,179-17.32,96.37-109.65,189.99-171,171-53.27-16.49-88.13-119.44-56-179,40.46-74.98,172.82-54.72,180-102,5.02-33.05-54.44-77.38-75-66-33.02,18.27,30.8,182.22,15,188-15.61,5.71-65.38-158.87-113-154-42.21,4.31-83.56,141.83-40,180,26.99,23.64,79.71,3.15,165-30,88.81-34.52,103.69-85.08,156-79,33.66,3.91,42.64,23.92,95,33,33.45,5.8,62.27,3.27,82,0"/>
  <polygon class="uuid-d47b4cdf-9a17-464b-9f01-5c2cc1436693" points="805.76 229.62 762.49 274.74 747.49 207 805.76 229.62"/>
</svg>