<?xml version="1.0" encoding="UTF-8"?>
<svg id="uuid-eec6a759-1b06-449d-aee7-9636e90a832e" data-name="Ebene 1" xmlns="http://www.w3.org/2000/svg" viewBox="0 0 798.73 258.87">
  <defs>
    <style>
      .uuid-6c6f322e-864f-4bd2-88d1-c649907d161a {
        fill: none;
        stroke: #004f96;
        stroke-linecap: round;
        stroke-width: 20px;
      }

      .uuid-6c6f322e-864f-4bd2-88d1-c649907d161a, .uuid-b2d31324-92be-4055-848c-62b442cf56b7, .uuid-222268d8-a8b8-404f-89f7-83b309c6f45e {
        stroke-miterlimit: 10;
      }

      .uuid-b2d31324-92be-4055-848c-62b442cf56b7 {
        stroke-width: 10px;
      }

      .uuid-b2d31324-92be-4055-848c-62b442cf56b7, .uuid-222268d8-a8b8-404f-89f7-83b309c6f45e {
        fill: #63c9f8;
        stroke: #63c9f8;
      }
    </style>
  </defs>
  <path class="uuid-222268d8-a8b8-404f-89f7-83b309c6f45e" d="m432.45,139.27l-59.91-.03c.07,6.96,1.47,13.09,4.2,18.4,2.73,5.31,6.35,9.32,10.88,12.01,4.52,2.7,9.52,4.04,14.98,4.05,3.66,0,7.01-.42,10.04-1.28,3.03-.86,5.96-2.2,8.81-4.03,2.84-1.83,5.46-3.79,7.86-5.88,2.39-2.09,5.5-4.93,9.32-8.52,1.57-1.35,3.82-2.02,6.73-2.02,3.14,0,5.68.86,7.63,2.58,1.94,1.72,2.92,4.15,2.91,7.29,0,2.77-1.09,6-3.26,9.7-2.17,3.7-5.45,7.25-9.82,10.65-4.38,3.4-9.88,6.22-16.5,8.46-6.62,2.24-14.23,3.36-22.83,3.35-19.67-.01-34.97-5.63-45.88-16.86-10.92-11.23-16.37-26.45-16.35-45.67,0-9.05,1.36-17.44,4.05-25.18,2.7-7.74,6.63-14.38,11.79-19.91,5.16-5.53,11.52-9.77,19.08-12.72,7.56-2.95,15.94-4.42,25.13-4.42,11.97,0,22.23,2.54,30.79,7.59,8.56,5.05,14.97,11.58,19.23,19.59,4.26,8.01,6.38,16.16,6.38,24.46,0,7.7-2.21,12.7-6.63,14.97-4.42,2.28-10.62,3.42-18.63,3.41Zm-59.9-17.42l55.54.03c-.74-10.47-3.56-18.31-8.46-23.51-4.9-5.2-11.35-7.8-19.35-7.81-7.63,0-13.9,2.63-18.8,7.9-4.9,5.27-7.88,13.07-8.93,23.39Z"/>
  <path class="uuid-6c6f322e-864f-4bd2-88d1-c649907d161a" d="m484.69,203.12l-75.38,43.52c-5.15,2.97-11.49,2.97-16.64,0l-75.38-43.52m203.88-114.57c0-7.76-4.14-14.93-10.86-18.81l-98.42-56.83c-6.72-3.88-15-3.88-21.72,0l-98.42,56.83c-6.72,3.88-10.86,11.05-10.86,18.81m-.08-.34c0,7.76,4.14,14.93,10.86,18.81l18.75,10.82m181.07,0l18.75-10.82c6.72-3.88,10.86-11.05,10.86-18.81"/>
  <text/>
  <path class="uuid-b2d31324-92be-4055-848c-62b442cf56b7" d="m790.14,105.31l-39.14,48.74-20.9-66.16,60.03,17.42Zm-229.07,55.63c71.84-10.52,133.5-26.03,182.93-41.19m-702,6c52.76,15.2,119.95,30.75,198.81,39.92"/>
</svg>