<?xml version="1.0" encoding="UTF-8"?>
<svg id="uuid-2732200c-d35c-4446-85d7-d306d635c132" data-name="Ebene 1" xmlns="http://www.w3.org/2000/svg" viewBox="0 0 512 512">
  <defs>
    <style>
      .uuid-40b1276f-3212-4ddc-bf99-17d8166620d1 {
        fill: #1d1d1b;
        stroke: #1d1d1b;
        stroke-miterlimit: 10;
      }
    </style>
  </defs>
  <path class="uuid-40b1276f-3212-4ddc-bf99-17d8166620d1" d="m99.75,255.86c0,27.32-22.12,49.46-49.41,49.46S.93,283.17.93,255.86s22.12-49.46,49.41-49.46,49.41,22.15,49.41,49.46ZM50.41,62.54C23.12,62.54,1,84.68,1,112s22.12,49.46,49.41,49.46,49.41-22.15,49.41-49.46-22.12-49.46-49.41-49.46Zm0,288c-27.29,0-49.41,22.15-49.41,49.46s22.12,49.46,49.41,49.46,49.41-22.15,49.41-49.46-22.12-49.46-49.41-49.46Z"/>
  <path class="uuid-40b1276f-3212-4ddc-bf99-17d8166620d1" d="m480.98,289.81H178.22c-16.54,0-29.95-13.41-29.95-29.95v-8.02c0-16.54,13.41-29.95,29.95-29.95h302.75c16.54,0,29.95,13.41,29.95,29.95v8.02c0,16.54-13.41,29.95-29.95,29.95Zm30.02-173.8v-8.02c0-16.54-13.41-29.95-29.95-29.95H178.3c-16.54,0-29.95,13.41-29.95,29.95v8.02c0,16.54,13.41,29.95,29.95,29.95h302.75c16.54,0,29.95-13.41,29.95-29.95Zm0,288v-8.02c0-16.54-13.41-29.95-29.95-29.95H178.3c-16.54,0-29.95,13.41-29.95,29.95v8.02c0,16.54,13.41,29.95,29.95,29.95h302.75c16.54,0,29.95-13.41,29.95-29.95Z"/>
</svg>