<?xml version="1.0" encoding="UTF-8"?>
<svg id="uuid-13743c0d-d7f2-41ad-8111-78fdbf6b8846" data-name="Ebene 1" xmlns="http://www.w3.org/2000/svg" viewBox="0 0 512 512">
  <defs>
    <style>
      .uuid-c93e7480-a101-437e-b1c2-873f34f402a7, .uuid-63df1936-b14e-4980-9368-3f2a2d311ca6 {
        stroke: #000;
        stroke-miterlimit: 10;
        stroke-width: 30px;
      }

      .uuid-63df1936-b14e-4980-9368-3f2a2d311ca6 {
        fill: none;
        stroke-linecap: round;
      }
    </style>
  </defs>
  <path class="uuid-c93e7480-a101-437e-b1c2-873f34f402a7" d="m207.37,283.79c-4.69-8.19-7.37-17.68-7.37-27.79,0-30.93,25.07-56,56-56,10.07,0,19.52,2.66,27.69,7.31"/>
  <path class="uuid-63df1936-b14e-4980-9368-3f2a2d311ca6" d="m139.11,352.22c-54.52-23.1-95.85-59.45-95.82-96.42.05-61.63,115.05-120.78,212.71-120.82,28.42,0,58.31,4.99,86.41,13.6m-145.42,221.85c20.99,4.48,42.44,6.85,63.16,6.55,95.65-1.38,208.64-59.9,208.56-121.18-.04-31.13-29.25-61.57-70.71-84.1m-142,140.3c30.93,0,56-25.07,56-56m86.15-163.15L86.57,404.43m225.43-148.43l-56,56"/>
</svg>