<?xml version="1.0" encoding="UTF-8"?>
<svg id="uuid-ca62b81e-d30a-41e5-bc99-c11e693b0be0" data-name="Ebene 1" xmlns="http://www.w3.org/2000/svg" viewBox="0 0 512 512">
  <defs>
    <style>
      .uuid-a65f9c0e-9ec1-47c5-a0c3-3407d68fca01 {
        stroke-linejoin: round;
      }

      .uuid-a65f9c0e-9ec1-47c5-a0c3-3407d68fca01, .uuid-c27d26e5-5cc4-41a9-911f-82d0aaaf6cb9 {
        fill: none;
        stroke: #000;
        stroke-linecap: round;
        stroke-width: 25px;
      }

      .uuid-c27d26e5-5cc4-41a9-911f-82d0aaaf6cb9 {
        stroke-linejoin: bevel;
      }
    </style>
  </defs>
  <path class="uuid-a65f9c0e-9ec1-47c5-a0c3-3407d68fca01" d="m451.13,217.01v253.33c0,10.44-8.45,18.88-18.88,18.88h-104.47c-10.44,0-18.88-8.45-18.88-18.88v-119.48c0-10.44-8.45-18.88-18.88-18.88h-68.02c-10.44,0-18.88,8.45-18.88,18.88v119.48c0,10.44-8.45,18.88-18.88,18.88h-104.47c-10.44,0-18.88-8.45-18.88-18.88v-255.8"/>
  <g>
    <polyline class="uuid-a65f9c0e-9ec1-47c5-a0c3-3407d68fca01" points="60.87 210.43 60.87 203.9 80.03 186.08 255.76 22.77 431.48 186.08 451.13 204.34 451.13 212.36"/>
    <line class="uuid-c27d26e5-5cc4-41a9-911f-82d0aaaf6cb9" x1="60.87" y1="203.9" x2="13.29" y2="248.12"/>
    <line class="uuid-c27d26e5-5cc4-41a9-911f-82d0aaaf6cb9" x1="498.71" y1="248.56" x2="451.13" y2="204.34"/>
  </g>
</svg>