<?xml version="1.0" encoding="UTF-8"?>
<svg id="uuid-07ba4966-4fe4-44e3-974d-04c3de20a358" data-name="Ebene 1" xmlns="http://www.w3.org/2000/svg" viewBox="0 0 512 512">
  <defs>
    <style>
      .uuid-27e32dde-160b-4877-b80c-9c4ce5788fa9 {
        fill: none;
        stroke: #000;
      }

      .uuid-27e32dde-160b-4877-b80c-9c4ce5788fa9, .uuid-099e2516-5901-4e9d-ac55-3a43e254ec11 {
        stroke-linecap: round;
        stroke-miterlimit: 10;
        stroke-width: 25px;
      }

      .uuid-099e2516-5901-4e9d-ac55-3a43e254ec11 {
        fill: #f86363;
        stroke: #f86363;
      }
    </style>
  </defs>
  <g>
    <path class="uuid-27e32dde-160b-4877-b80c-9c4ce5788fa9" d="m142.54,171.02c6.68-65.53,54.82-116.36,113.21-116.36"/>
    <path class="uuid-27e32dde-160b-4877-b80c-9c4ce5788fa9" d="m142.75,171.34l-13,102c-.06,4.98-.89,12.13-5,19-5.37,8.99-12.33,10.79-22,18-7.11,5.3-20.8,15.52-25,31-4,14.75,1.49,31.04,11,42,13.32,15.36,31.5,16.79,35,17"/>
    <line class="uuid-27e32dde-160b-4877-b80c-9c4ce5788fa9" x1="123.75" y1="400.34" x2="255.75" y2="400.34"/>
    <path class="uuid-27e32dde-160b-4877-b80c-9c4ce5788fa9" d="m281.35,57.87c-8.08-2.1-16.48-3.21-25.1-3.21"/>
    <path class="uuid-27e32dde-160b-4877-b80c-9c4ce5788fa9" d="m370.12,178.17l12.13,95.17c.06,4.98.89,12.13,5,19,5.37,8.99,12.33,10.79,22,18,7.11,5.3,20.8,15.52,25,31,4,14.75-1.49,31.04-11,42-13.32,15.36-31.5,16.79-35,17"/>
    <line class="uuid-27e32dde-160b-4877-b80c-9c4ce5788fa9" x1="388.25" y1="400.34" x2="256.25" y2="400.34"/>
    <path class="uuid-27e32dde-160b-4877-b80c-9c4ce5788fa9" d="m289.75,423.34c0,18.78-15.22,34-34,34s-34-15.22-34-34"/>
    <line class="uuid-27e32dde-160b-4877-b80c-9c4ce5788fa9" x1="221.75" y1="423.34" x2="221.75" y2="404.34"/>
    <line class="uuid-27e32dde-160b-4877-b80c-9c4ce5788fa9" x1="289.75" y1="423.34" x2="289.75" y2="400.34"/>
  </g>
  <circle class="uuid-099e2516-5901-4e9d-ac55-3a43e254ec11" cx="368.5" cy="90.5" r="41"/>
</svg>