<?xml version="1.0" encoding="UTF-8"?>
<svg id="uuid-b0d3811c-35b0-4c2e-8efd-ba20c163ba0f" data-name="Ebene 1" xmlns="http://www.w3.org/2000/svg" viewBox="0 0 512 512">
  <defs>
    <style>
      .uuid-207d591b-b8a2-4ce0-850c-5e92f4bf1a41 {
        fill: none;
        stroke: #000;
        stroke-linecap: round;
        stroke-miterlimit: 10;
        stroke-width: 25px;
      }
    </style>
  </defs>
  <path class="uuid-207d591b-b8a2-4ce0-850c-5e92f4bf1a41" d="m142.54,171.02c6.68-65.53,54.82-116.36,113.21-116.36"/>
  <path class="uuid-207d591b-b8a2-4ce0-850c-5e92f4bf1a41" d="m142.75,171.34l-13,102c-.06,4.98-.89,12.13-5,19-5.37,8.99-12.33,10.79-22,18-7.11,5.3-20.8,15.52-25,31-4,14.75,1.49,31.04,11,42,13.32,15.36,31.5,16.79,35,17"/>
  <line class="uuid-207d591b-b8a2-4ce0-850c-5e92f4bf1a41" x1="123.75" y1="400.34" x2="255.75" y2="400.34"/>
  <path class="uuid-207d591b-b8a2-4ce0-850c-5e92f4bf1a41" d="m369.46,171.02c-6.68-65.53-54.82-116.36-113.21-116.36"/>
  <path class="uuid-207d591b-b8a2-4ce0-850c-5e92f4bf1a41" d="m369.25,171.34l13,102c.06,4.98.89,12.13,5,19,5.37,8.99,12.33,10.79,22,18,7.11,5.3,20.8,15.52,25,31,4,14.75-1.49,31.04-11,42-13.32,15.36-31.5,16.79-35,17"/>
  <line class="uuid-207d591b-b8a2-4ce0-850c-5e92f4bf1a41" x1="388.25" y1="400.34" x2="256.25" y2="400.34"/>
  <path class="uuid-207d591b-b8a2-4ce0-850c-5e92f4bf1a41" d="m289.75,423.34c0,18.78-15.22,34-34,34s-34-15.22-34-34"/>
  <line class="uuid-207d591b-b8a2-4ce0-850c-5e92f4bf1a41" x1="221.75" y1="423.34" x2="221.75" y2="404.34"/>
  <line class="uuid-207d591b-b8a2-4ce0-850c-5e92f4bf1a41" x1="289.75" y1="423.34" x2="289.75" y2="400.34"/>
</svg>