<?xml version="1.0" encoding="UTF-8"?>
<svg id="uuid-a1be512f-ebbf-4a07-aee0-ae3cd8735bc7" data-name="Ebene 1" xmlns="http://www.w3.org/2000/svg" viewBox="0 0 512 512">
  <defs>
    <style>
      .uuid-6a349576-3b32-400e-b95d-50b26664cdcd {
        fill: #1a1a1a;
      }
    </style>
  </defs>
  <path class="uuid-6a349576-3b32-400e-b95d-50b26664cdcd" d="m256,25c5.34,0,10.73.18,16.02.55,13.9.95,25.84,10.74,29.03,23.8,5.81,23.83,20.71,43.7,41.95,55.96,13.52,7.8,28.88,11.93,44.42,11.93,8.44,0,16.84-1.2,24.96-3.57,2.75-.8,5.59-1.21,8.46-1.21,10.48,0,20.72,5.53,26.74,14.43,5.93,8.78,11.29,18.04,15.95,27.52,6.19,12.63,3.71,27.95-6.03,37.28-17.72,16.95-27.48,39.78-27.48,64.3s9.76,47.35,27.48,64.3c9.75,9.32,12.23,24.65,6.03,37.28-4.65,9.49-10.02,18.75-15.95,27.52-6.01,8.9-16.26,14.43-26.74,14.43-2.86,0-5.71-.41-8.46-1.21-8.12-2.37-16.52-3.57-24.96-3.57-15.54,0-30.9,4.13-44.42,11.93-21.24,12.26-36.13,32.14-41.95,55.96-3.19,13.06-15.12,22.85-29.03,23.8-5.3.36-10.69.55-16.02.55s-10.73-.18-16.02-.55c-13.9-.95-25.84-10.74-29.03-23.8-5.81-23.83-20.71-43.7-41.95-55.96-13.52-7.8-28.88-11.93-44.42-11.93-8.44,0-16.84,1.2-24.96,3.57-2.75.8-5.59,1.21-8.46,1.21-10.48,0-20.72-5.53-26.74-14.43-5.93-8.78-11.29-18.04-15.95-27.52-6.19-12.63-3.71-27.95,6.03-37.28,17.72-16.95,27.48-39.78,27.48-64.3s-9.76-47.35-27.48-64.3c-9.75-9.32-12.23-24.65-6.03-37.28,4.65-9.49,10.02-18.75,15.95-27.52,6.01-8.9,16.26-14.43,26.74-14.43,2.86,0,5.71.41,8.46,1.21,8.12,2.37,16.52,3.57,24.96,3.57,15.54,0,30.9-4.13,44.42-11.93,21.24-12.26,36.13-32.14,41.95-55.96,3.19-13.06,15.12-22.85,29.03-23.8,5.3-.36,10.69-.55,16.02-.55m0-25c-5.96,0-11.87.2-17.73.6-24.61,1.68-45.76,18.85-51.61,42.82-4,16.37-14.41,31.15-30.16,40.24h0c-10.07,5.82-21.07,8.58-31.92,8.58-6.1,0-12.15-.87-17.97-2.57-5.11-1.49-10.31-2.2-15.45-2.2-18.66,0-36.64,9.42-47.45,25.44-6.56,9.71-12.47,19.9-17.67,30.51-10.91,22.23-6.7,49.24,11.2,66.35,12.18,11.65,19.76,28.05,19.76,46.23s-7.58,34.59-19.76,46.23c-17.9,17.12-22.11,44.12-11.2,66.35,5.2,10.6,11.11,20.79,17.67,30.51,10.82,16.02,28.79,25.44,47.45,25.44,5.14,0,10.34-.72,15.45-2.2,5.82-1.69,11.87-2.57,17.97-2.57,10.85,0,21.85,2.76,31.92,8.58,15.75,9.09,26.17,23.87,30.16,40.24,5.85,23.96,27,41.13,51.61,42.82,5.86.4,11.77.6,17.73.6s11.87-.2,17.73-.6c24.61-1.68,45.76-18.85,51.61-42.82,4-16.37,14.41-31.15,30.16-40.24,10.07-5.82,21.07-8.58,31.92-8.58,6.1,0,12.15.87,17.97,2.57,5.11,1.49,10.31,2.2,15.45,2.2,18.66,0,36.64-9.42,47.45-25.44,6.56-9.71,12.47-19.9,17.67-30.51,10.91-22.23,6.7-49.24-11.2-66.35-12.18-11.65-19.76-28.05-19.76-46.23s7.58-34.59,19.76-46.23c17.9-17.12,22.11-44.12,11.2-66.35-5.2-10.6-11.11-20.79-17.67-30.51-10.82-16.02-28.79-25.44-47.45-25.44-5.14,0-10.34.72-15.45,2.2-5.82,1.69-11.87,2.57-17.97,2.57-10.85,0-21.85-2.76-31.92-8.58h0c-15.75-9.09-26.17-23.87-30.16-40.24-5.85-23.96-27-41.13-51.61-42.82-5.86-.4-11.77-.6-17.73-.6h0Z"/>
  <path class="uuid-6a349576-3b32-400e-b95d-50b26664cdcd" d="m256,177c43.56,0,79,35.44,79,79s-35.44,79-79,79-79-35.44-79-79,35.44-79,79-79m0-25c-57.44,0-104,46.56-104,104s46.56,104,104,104,104-46.56,104-104-46.56-104-104-104h0Z"/>
</svg>