<?xml version="1.0" encoding="UTF-8"?>
<svg id="uuid-5f5420d4-3e9d-448d-9066-667e9fb71d65" data-name="Ebene 1" xmlns="http://www.w3.org/2000/svg" viewBox="0 0 500 500">
  <defs>
    <style>
      .uuid-3a92f6c6-813a-41a1-afa0-de2011037f54 {
        stroke-width: 25px;
      }

      .uuid-3a92f6c6-813a-41a1-afa0-de2011037f54, .uuid-c50a6809-62ed-40c7-bd8a-19669e89017f {
        fill: none;
        stroke: #1d1d1b;
        stroke-linecap: round;
        stroke-miterlimit: 10;
      }

      .uuid-c50a6809-62ed-40c7-bd8a-19669e89017f {
        stroke-width: 12px;
      }
    </style>
  </defs>
  <path class="uuid-3a92f6c6-813a-41a1-afa0-de2011037f54" d="m124.93,457.92H36.06c-6.18,0-11.2-5.01-11.2-11.2V73.04c0-6.18,5.01-11.2,11.2-11.2h88.87c6.18,0,11.2,5.01,11.2,11.2v373.68c0,6.18-5.01,11.2-11.2,11.2Zm167.34-11.2V73.04c0-6.18-5.01-11.2-11.2-11.2h-88.87c-6.18,0-11.2,5.01-11.2,11.2v373.68c0,6.18,5.01,11.2,11.2,11.2h88.87c6.18,0,11.2-5.01,11.2-11.2Z"/>
  <rect class="uuid-3a92f6c6-813a-41a1-afa0-de2011037f54" x="344.1" y="57.96" width="111.27" height="396.08" rx="11.2" ry="11.2" transform="translate(-38.38 73.3) rotate(-10)"/>
  <path class="uuid-c50a6809-62ed-40c7-bd8a-19669e89017f" d="m98.34,371.84c0,10.43-8.46,18.89-18.89,18.89s-18.89-8.46-18.89-18.89,8.46-18.89,18.89-18.89,18.89,8.46,18.89,18.89Zm137.25-18.89c-10.43,0-18.89,8.46-18.89,18.89s8.46,18.89,18.89,18.89,18.89-8.46,18.89-18.89-8.46-18.89-18.89-18.89Zm179.27-5.11c-10.28,1.81-17.14,11.61-15.33,21.89,1.81,10.28,11.61,17.14,21.89,15.33,10.28-1.81,17.14-11.61,15.33-21.89-1.81-10.28-11.61-17.14-21.89-15.33Z"/>
  <path class="uuid-c50a6809-62ed-40c7-bd8a-19669e89017f" d="m57.05,126.92h48.29m-48.29,19.59h31.49m-31.14,18.89h40.94m114.86-38.49h48.29m-48.29,19.59h31.49m-31.14,18.89h40.94m99.07-36.28l47.55-8.38m-44.15,27.68l31.01-5.47m-27.39,24.01l40.32-7.11"/>
</svg>