<?xml version="1.0" encoding="UTF-8"?>
<svg id="a" data-name="Ebene 1" xmlns="http://www.w3.org/2000/svg" viewBox="0 0 2048 512">
  <text/>
  <g>
    <path d="m679.77,281.11h-65.19c.08,7.57,1.61,14.24,4.58,20.02,2.97,5.78,6.92,10.13,11.84,13.06,4.92,2.93,10.35,4.39,16.3,4.39,3.99,0,7.63-.47,10.93-1.4,3.3-.93,6.49-2.4,9.58-4.39,3.09-1.99,5.94-4.13,8.54-6.41,2.6-2.28,5.98-5.37,10.13-9.28,1.71-1.46,4.15-2.2,7.32-2.2,3.42,0,6.18.94,8.3,2.81,2.12,1.87,3.17,4.52,3.17,7.93,0,3.01-1.18,6.53-3.54,10.56-2.36,4.03-5.92,7.89-10.68,11.6-4.76,3.7-10.74,6.78-17.94,9.22s-15.48,3.66-24.84,3.66c-21.4,0-38.05-6.1-49.93-18.31-11.88-12.21-17.82-28.77-17.82-49.68,0-9.85,1.46-18.98,4.39-27.4s7.2-15.64,12.82-21.67c5.62-6.02,12.53-10.64,20.75-13.85,8.22-3.21,17.33-4.82,27.34-4.82,13.02,0,24.19,2.75,33.51,8.24,9.32,5.49,16.3,12.59,20.94,21.3,4.64,8.71,6.96,17.58,6.96,26.61,0,8.38-2.4,13.81-7.2,16.3-4.8,2.48-11.56,3.72-20.26,3.72Zm-65.19-18.92h60.42c-.81-11.39-3.89-19.92-9.22-25.57-5.33-5.66-12.35-8.48-21.06-8.48s-15.12,2.87-20.45,8.61c-5.33,5.74-8.57,14.22-9.7,25.45Z" stroke-width="0"/>
    <path d="m826.62,321.64v-3.3c-4.48,5.13-8.89,9.3-13.24,12.51-4.35,3.22-9.08,5.66-14.16,7.32-5.09,1.67-10.64,2.5-16.66,2.5-7.98,0-15.36-1.69-22.16-5.07-6.8-3.38-12.68-8.2-17.64-14.46-4.96-6.27-8.73-13.63-11.29-22.09-2.56-8.46-3.85-17.62-3.85-27.47,0-20.83,5.08-37.07,15.26-48.71,10.17-11.64,23.56-17.46,40.16-17.46,9.6,0,17.7,1.65,24.29,4.94s13.02,8.36,19.29,15.2v-49.19c0-6.84,1.36-12,4.09-15.5,2.73-3.5,6.61-5.25,11.66-5.25s8.93,1.61,11.66,4.82c2.73,3.22,4.09,7.96,4.09,14.22v146.97c0,6.35-1.46,11.11-4.39,14.28s-6.71,4.76-11.35,4.76-8.32-1.65-11.29-4.94c-2.97-3.3-4.46-8-4.46-14.1Zm-65.55-48.95c0,9.03,1.4,16.72,4.21,23.07s6.65,11.13,11.54,14.34c4.88,3.22,10.21,4.82,15.99,4.82s11.21-1.53,16.05-4.58c4.84-3.05,8.71-7.73,11.6-14.04,2.89-6.31,4.33-14.18,4.33-23.62,0-8.87-1.45-16.5-4.33-22.89-2.89-6.39-6.8-11.27-11.72-14.65-4.92-3.38-10.31-5.07-16.17-5.07s-11.56,1.73-16.36,5.19c-4.8,3.46-8.53,8.42-11.17,14.89-2.65,6.47-3.97,13.98-3.97,22.52Z" stroke-width="0"/>
    <path d="m978.1,321.89v-4.27c-3.99,5.05-8.18,9.28-12.57,12.7s-9.2,5.96-14.4,7.63c-5.21,1.67-11.15,2.5-17.82,2.5-8.06,0-15.28-1.67-21.67-5-6.39-3.34-11.33-7.93-14.83-13.79-4.15-7.08-6.23-17.25-6.23-30.52v-66.04c0-6.67,1.5-11.66,4.52-14.95,3.01-3.3,7-4.94,11.96-4.94s9.11,1.67,12.21,5c3.09,3.34,4.64,8.3,4.64,14.89v53.34c0,7.73.65,14.22,1.95,19.47,1.3,5.25,3.64,9.36,7.02,12.33,3.38,2.97,7.95,4.46,13.73,4.46s10.9-1.67,15.87-5c4.96-3.34,8.58-7.69,10.86-13.06,1.87-4.72,2.81-15.05,2.81-31.01v-40.53c0-6.59,1.54-11.55,4.64-14.89,3.09-3.34,7.12-5,12.08-5s8.95,1.65,11.96,4.94c3.01,3.3,4.52,8.28,4.52,14.95v96.56c0,6.35-1.45,11.11-4.33,14.28-2.89,3.17-6.61,4.76-11.17,4.76s-8.32-1.65-11.29-4.94c-2.97-3.3-4.46-7.91-4.46-13.85Z" stroke-width="0"/>
    <path d="m1080.4,177.6v130.25h73.49c5.86,0,10.35,1.42,13.49,4.27,3.13,2.85,4.7,6.43,4.7,10.74s-1.55,7.96-4.64,10.68c-3.09,2.73-7.61,4.09-13.55,4.09h-87.53c-7.89,0-13.57-1.75-17.03-5.25-3.46-3.5-5.19-9.16-5.19-16.97v-137.82c0-7.32,1.65-12.82,4.94-16.48s7.63-5.49,13-5.49,9.87,1.81,13.24,5.43c3.38,3.62,5.07,9.14,5.07,16.54Z" stroke-width="0"/>
    <path d="m1318.31,272.94c0,9.93-1.55,19.08-4.64,27.47-3.09,8.38-7.57,15.58-13.43,21.61-5.86,6.02-12.86,10.64-21,13.85-8.14,3.21-17.29,4.82-27.46,4.82s-19.17-1.63-27.22-4.88-15.04-7.91-20.93-13.98c-5.9-6.06-10.38-13.22-13.43-21.48-3.05-8.26-4.58-17.39-4.58-27.4s1.54-19.33,4.64-27.71c3.09-8.38,7.53-15.54,13.3-21.48,5.78-5.94,12.78-10.52,21-13.73,8.22-3.21,17.29-4.82,27.22-4.82s19.24,1.63,27.46,4.88c8.22,3.26,15.26,7.89,21.12,13.92,5.86,6.02,10.31,13.18,13.37,21.48s4.58,17.46,4.58,27.47Zm-33.45,0c0-13.59-2.99-24.17-8.97-31.74s-14.02-11.35-24.11-11.35c-6.51,0-12.25,1.69-17.21,5.07-4.96,3.38-8.79,8.36-11.47,14.95s-4.03,14.28-4.03,23.07,1.32,16.32,3.97,22.83c2.64,6.51,6.43,11.5,11.35,14.95,4.92,3.46,10.72,5.19,17.4,5.19,10.09,0,18.13-3.8,24.11-11.41,5.98-7.61,8.97-18.13,8.97-31.55Z" stroke-width="0"/>
    <path d="m1431.11,321.89v-4.27c-3.99,5.05-8.18,9.28-12.57,12.7s-9.2,5.96-14.4,7.63c-5.21,1.67-11.15,2.5-17.82,2.5-8.06,0-15.28-1.67-21.67-5-6.39-3.34-11.33-7.93-14.83-13.79-4.15-7.08-6.22-17.25-6.22-30.52v-66.04c0-6.67,1.5-11.66,4.52-14.95,3.01-3.3,7-4.94,11.96-4.94s9.11,1.67,12.21,5c3.09,3.34,4.64,8.3,4.64,14.89v53.34c0,7.73.65,14.22,1.95,19.47,1.3,5.25,3.64,9.36,7.02,12.33,3.38,2.97,7.95,4.46,13.73,4.46s10.9-1.67,15.87-5c4.96-3.34,8.59-7.69,10.87-13.06,1.87-4.72,2.81-15.05,2.81-31.01v-40.53c0-6.59,1.54-11.55,4.64-14.89,3.09-3.34,7.12-5,12.09-5s8.95,1.65,11.96,4.94c3.01,3.3,4.52,8.28,4.52,14.95v96.56c0,6.35-1.45,11.11-4.33,14.28-2.89,3.17-6.61,4.76-11.17,4.76s-8.32-1.65-11.29-4.94c-2.97-3.3-4.46-7.91-4.46-13.85Z" stroke-width="0"/>
    <path d="m1525.83,223.62v4.03c5.86-7.73,12.27-13.41,19.23-17.03,6.96-3.62,14.95-5.43,23.99-5.43s16.64,1.91,23.56,5.74c6.92,3.83,12.08,9.24,15.5,16.24,2.2,4.07,3.62,8.46,4.27,13.18.65,4.72.98,10.74.98,18.07v62.01c0,6.67-1.53,11.72-4.58,15.14-3.05,3.42-7.02,5.13-11.9,5.13s-8.99-1.75-12.08-5.25c-3.09-3.5-4.64-8.5-4.64-15.01v-55.54c0-10.99-1.53-19.39-4.58-25.21-3.05-5.82-9.14-8.73-18.25-8.73-5.94,0-11.35,1.77-16.24,5.31s-8.46,8.4-10.74,14.59c-1.63,4.96-2.44,14.24-2.44,27.83v41.75c0,6.76-1.57,11.82-4.7,15.2-3.13,3.38-7.18,5.07-12.15,5.07s-8.75-1.75-11.84-5.25c-3.09-3.5-4.64-8.5-4.64-15.01v-96.31c0-6.35,1.38-11.09,4.15-14.22,2.77-3.13,6.55-4.7,11.35-4.7,2.93,0,5.57.69,7.93,2.08,2.36,1.38,4.25,3.46,5.68,6.23,1.42,2.77,2.14,6.15,2.14,10.13Z" stroke-width="0"/>
    <path d="m1769.12,229.6v96.8c0,11.07-1.18,20.59-3.54,28.56-2.36,7.97-6.15,14.57-11.35,19.78-5.21,5.21-12.02,9.07-20.45,11.6-8.42,2.52-18.9,3.78-31.43,3.78-11.47,0-21.73-1.61-30.76-4.82-9.03-3.22-15.99-7.37-20.87-12.45-4.88-5.09-7.32-10.31-7.32-15.69,0-4.07,1.38-7.39,4.15-9.95,2.77-2.56,6.1-3.84,10.01-3.84,4.88,0,9.16,2.16,12.82,6.47,1.79,2.2,3.64,4.41,5.55,6.65,1.91,2.24,4.03,4.15,6.35,5.74,2.32,1.59,5.11,2.77,8.36,3.54,3.25.77,7,1.16,11.23,1.16,8.62,0,15.32-1.2,20.08-3.6,4.76-2.4,8.1-5.76,10.01-10.07,1.91-4.31,3.03-8.93,3.36-13.86.32-4.92.57-12.84.73-23.74-5.13,7.16-11.05,12.62-17.76,16.36-6.71,3.74-14.71,5.62-23.99,5.62-11.15,0-20.89-2.85-29.24-8.54-8.34-5.7-14.75-13.67-19.23-23.93-4.48-10.25-6.71-22.09-6.71-35.52,0-10.01,1.36-19.04,4.09-27.1,2.73-8.06,6.61-14.85,11.66-20.39,5.04-5.53,10.86-9.7,17.46-12.51s13.83-4.21,21.73-4.21c9.44,0,17.62,1.81,24.54,5.43,6.92,3.62,13.35,9.3,19.29,17.03v-4.52c0-5.78,1.42-10.25,4.27-13.43,2.85-3.17,6.51-4.76,10.99-4.76,6.43,0,10.7,2.1,12.82,6.29,2.12,4.19,3.17,10.23,3.17,18.13Zm-96.56,42.24c0,13.51,2.95,23.72,8.85,30.64,5.9,6.92,13.53,10.38,22.89,10.38,5.53,0,10.76-1.48,15.69-4.46,4.92-2.97,8.93-7.45,12.02-13.43,3.09-5.98,4.64-13.24,4.64-21.79,0-13.59-2.99-24.17-8.97-31.74-5.98-7.57-13.86-11.35-23.62-11.35s-17.15,3.62-22.89,10.86c-5.74,7.24-8.61,17.54-8.61,30.88Z" stroke-width="0"/>
    <path d="m1889.6,281.11h-65.19c.08,7.57,1.61,14.24,4.58,20.02,2.97,5.78,6.92,10.13,11.84,13.06,4.92,2.93,10.35,4.39,16.3,4.39,3.99,0,7.63-.47,10.92-1.4,3.3-.93,6.49-2.4,9.58-4.39,3.09-1.99,5.94-4.13,8.54-6.41,2.6-2.28,5.98-5.37,10.13-9.28,1.71-1.46,4.15-2.2,7.32-2.2,3.42,0,6.18.94,8.3,2.81,2.12,1.87,3.17,4.52,3.17,7.93,0,3.01-1.18,6.53-3.54,10.56-2.36,4.03-5.92,7.89-10.68,11.6-4.76,3.7-10.74,6.78-17.95,9.22-7.2,2.44-15.48,3.66-24.84,3.66-21.4,0-38.05-6.1-49.93-18.31-11.88-12.21-17.82-28.77-17.82-49.68,0-9.85,1.46-18.98,4.39-27.4s7.2-15.64,12.82-21.67c5.62-6.02,12.53-10.64,20.75-13.85,8.22-3.21,17.33-4.82,27.34-4.82,13.02,0,24.19,2.75,33.51,8.24,9.32,5.49,16.3,12.59,20.93,21.3,4.64,8.71,6.96,17.58,6.96,26.61,0,8.38-2.4,13.81-7.2,16.3-4.8,2.48-11.56,3.72-20.26,3.72Zm-65.19-18.92h60.42c-.81-11.39-3.89-19.92-9.22-25.57-5.33-5.66-12.35-8.48-21.06-8.48s-15.12,2.87-20.45,8.61-8.57,14.22-9.7,25.45Z" stroke-width="0"/>
  </g>
  <path d="m330.6,275.6l-117.33-.07c.14,13.62,2.88,25.64,8.22,36.04,5.34,10.41,12.44,18.25,21.3,23.52,8.86,5.28,18.63,7.92,29.33,7.93,7.17,0,13.73-.83,19.67-2.52,5.93-1.68,11.68-4.31,17.25-7.9,5.57-3.58,10.7-7.43,15.39-11.53,4.69-4.1,10.77-9.66,18.25-16.69,3.08-2.63,7.47-3.95,13.19-3.95,6.15,0,11.13,1.69,14.94,5.06,3.81,3.37,5.71,8.13,5.7,14.29,0,5.42-2.13,11.75-6.38,19-4.25,7.25-10.67,14.2-19.24,20.86-8.57,6.66-19.34,12.18-32.31,16.57-12.97,4.39-27.87,6.58-44.72,6.57-38.53-.02-68.48-11.03-89.85-33.01-21.38-21.99-32.05-51.8-32.03-89.45.01-17.72,2.66-34.17,7.94-49.32,5.28-15.16,12.98-28.15,23.09-38.99,10.11-10.83,22.57-19.14,37.37-24.92,14.8-5.78,31.21-8.66,49.22-8.65,23.43.01,43.54,4.97,60.3,14.87,16.77,9.9,29.32,22.69,37.66,38.36,8.34,15.68,12.5,31.65,12.5,47.91,0,15.09-4.34,24.86-12.98,29.33-8.65,4.47-20.81,6.69-36.48,6.68Zm-117.31-34.13l108.76.06c-1.45-20.51-6.98-35.85-16.56-46.04-9.59-10.19-22.22-15.28-37.89-15.29-14.94,0-27.21,5.15-36.81,15.47-9.6,10.32-15.43,25.59-17.49,45.8Z" fill="#63c9f8" stroke-width="0"/>
  <path d="m432.91,400.64l-147.62,85.23c-10.08,5.82-22.5,5.82-32.58,0l-147.62-85.23m399.28-224.37c0-15.2-8.11-29.24-21.27-36.84L290.36,28.13c-13.16-7.6-29.38-7.6-42.54,0L55.06,139.42c-13.16,7.6-21.27,21.64-21.27,36.84m-.16-.66c0,15.2,8.11,29.24,21.27,36.84l36.72,21.2m354.62,0l36.72-21.2c13.16-7.6,21.27-21.64,21.27-36.84" fill="none" stroke="#004f96" stroke-linecap="round" stroke-miterlimit="10" stroke-width="40"/>
  <text/>
</svg>