<?xml version="1.0" encoding="UTF-8"?>
<svg id="Ebene_1" data-name="Ebene 1" xmlns="http://www.w3.org/2000/svg" viewBox="0 0 512 512">
  <defs>
    <style>
      .cls-1 {
        fill: #63c9f8;
        stroke-width: 0px;
      }

      .cls-2 {
        fill: none;
        stroke: #004f96;
        stroke-linecap: round;
        stroke-miterlimit: 10;
        stroke-width: 40px;
      }
    </style>
  </defs>
  <path class="cls-2" d="m419.91,400.2l-147.62,85.23c-10.08,5.82-22.5,5.82-32.58,0l-147.62-85.23"/>
  <path class="cls-1" d="m317.6,275.17l-117.33-.07c.14,13.62,2.88,25.64,8.22,36.04,5.34,10.41,12.44,18.25,21.3,23.52,8.86,5.28,18.63,7.92,29.33,7.93,7.17,0,13.73-.83,19.67-2.52,5.93-1.68,11.68-4.31,17.25-7.9,5.57-3.58,10.7-7.43,15.39-11.53,4.69-4.1,10.77-9.66,18.25-16.69,3.08-2.63,7.47-3.95,13.19-3.95,6.15,0,11.13,1.69,14.94,5.06,3.81,3.37,5.71,8.13,5.7,14.29,0,5.42-2.13,11.75-6.38,19-4.25,7.25-10.67,14.2-19.24,20.86-8.57,6.66-19.34,12.18-32.31,16.57-12.97,4.39-27.87,6.58-44.72,6.57-38.53-.02-68.48-11.03-89.85-33.01-21.38-21.99-32.05-51.8-32.03-89.45.01-17.72,2.66-34.17,7.94-49.32,5.28-15.16,12.98-28.15,23.09-38.99,10.11-10.83,22.57-19.14,37.37-24.92,14.8-5.78,31.21-8.66,49.22-8.65,23.44.01,43.54,4.97,60.31,14.87,16.77,9.9,29.32,22.69,37.66,38.36,8.34,15.68,12.5,31.65,12.5,47.91,0,15.09-4.34,24.86-12.98,29.33-8.65,4.47-20.81,6.69-36.48,6.68Zm-117.31-34.12l108.76.06c-1.45-20.51-6.98-35.85-16.56-46.04-9.59-10.19-22.22-15.28-37.89-15.29-14.94,0-27.21,5.15-36.81,15.47-9.6,10.32-15.43,25.59-17.49,45.8Z"/>
  <path class="cls-2" d="m20.78,175.83c0-15.2,8.11-29.24,21.27-36.84L234.81,27.7c13.16-7.6,29.38-7.6,42.54,0l192.75,111.29c13.16,7.6,21.27,21.64,21.27,36.84m-470.76-.66c0,15.2,8.11,29.24,21.27,36.84l36.72,21.2m354.62,0l36.72-21.2c13.16-7.6,21.27-21.64,21.27-36.84"/>
  <text/>
</svg>